<svg width="161" height="50" viewBox="0 0 161 50" fill="none" xmlns="http://www.w3.org/2000/svg">
<rect x="0.0078125" width="160.014" height="49.262" rx="10" fill="black"/>
<path d="M48.5056 18.3368V9.80559H50.9138C51.656 9.80559 52.3123 9.96965 52.8826 10.2978C53.4529 10.6259 53.8923 11.0927 54.2009 11.6982C54.5134 12.3036 54.6716 12.9989 54.6755 13.7841V14.329C54.6755 15.1337 54.5193 15.8388 54.2068 16.4443C53.8982 17.0497 53.4548 17.5146 52.8767 17.8388C52.3025 18.163 51.6326 18.329 50.8669 18.3368H48.5056ZM49.6306 10.7314V17.4169H50.8142C51.6814 17.4169 52.3552 17.1474 52.8357 16.6083C53.3201 16.0693 53.5623 15.3017 53.5623 14.3056V13.8075C53.5623 12.8388 53.3337 12.0868 52.8767 11.5517C52.4236 11.0126 51.7791 10.7392 50.9431 10.7314H49.6306ZM57.6284 18.3368H56.5444V11.997H57.6284V18.3368ZM56.4566 10.3154C56.4566 10.1396 56.5093 9.99113 56.6148 9.87004C56.7241 9.74895 56.8843 9.6884 57.0952 9.6884C57.3062 9.6884 57.4663 9.74895 57.5757 9.87004C57.6851 9.99113 57.7398 10.1396 57.7398 10.3154C57.7398 10.4911 57.6851 10.6376 57.5757 10.7548C57.4663 10.872 57.3062 10.9306 57.0952 10.9306C56.8843 10.9306 56.7241 10.872 56.6148 10.7548C56.5093 10.6376 56.4566 10.4911 56.4566 10.3154ZM63.3001 16.6552C63.3001 16.3622 63.1887 16.1357 62.9661 15.9755C62.7473 15.8114 62.3626 15.6708 61.8118 15.5536C61.2649 15.4364 60.8294 15.2958 60.5051 15.1318C60.1848 14.9677 59.9466 14.7724 59.7903 14.5458C59.638 14.3193 59.5618 14.0497 59.5618 13.7372C59.5618 13.2177 59.7805 12.7782 60.218 12.4189C60.6594 12.0595 61.2219 11.8798 61.9055 11.8798C62.6243 11.8798 63.2063 12.0654 63.6516 12.4364C64.1008 12.8075 64.3255 13.2822 64.3255 13.8603H63.2356C63.2356 13.5634 63.1087 13.3075 62.8548 13.0927C62.6048 12.8779 62.2883 12.7704 61.9055 12.7704C61.511 12.7704 61.2024 12.8564 60.9798 13.0282C60.7571 13.2001 60.6458 13.4247 60.6458 13.7021C60.6458 13.9638 60.7493 14.1611 60.9563 14.2939C61.1633 14.4267 61.5364 14.5536 62.0755 14.6747C62.6184 14.7958 63.0579 14.9404 63.3938 15.1083C63.7298 15.2763 63.9778 15.4794 64.138 15.7177C64.302 15.9521 64.3841 16.2392 64.3841 16.579C64.3841 17.1454 64.1575 17.6005 63.7044 17.9443C63.2512 18.2841 62.6633 18.454 61.9407 18.454C61.4329 18.454 60.9837 18.3642 60.593 18.1845C60.2024 18.0048 59.8958 17.7548 59.6731 17.4345C59.4544 17.1103 59.345 16.7607 59.345 16.3857H60.429C60.4485 16.7489 60.593 17.038 60.8626 17.2529C61.136 17.4638 61.4954 17.5693 61.9407 17.5693C62.3508 17.5693 62.679 17.4872 62.9251 17.3232C63.1751 17.1552 63.3001 16.9325 63.3001 16.6552ZM71.3916 15.2372C71.3916 16.2021 71.1709 16.9794 70.7295 17.5693C70.2881 18.1591 69.6905 18.454 68.9366 18.454C68.167 18.454 67.5616 18.2099 67.1201 17.7216V20.7743H66.0362V11.997H67.0264L67.0791 12.7001C67.5205 12.1532 68.1338 11.8798 68.919 11.8798C69.6807 11.8798 70.2823 12.1669 70.7237 12.7411C71.169 13.3154 71.3916 14.1142 71.3916 15.1376V15.2372ZM70.3076 15.1142C70.3076 14.3993 70.1553 13.8349 69.8506 13.4208C69.5459 13.0068 69.128 12.7997 68.5967 12.7997C67.9405 12.7997 67.4483 13.0907 67.1201 13.6728V16.7021C67.4444 17.2802 67.9405 17.5693 68.6084 17.5693C69.128 17.5693 69.5401 17.3642 69.8448 16.954C70.1533 16.54 70.3076 15.9267 70.3076 15.1142ZM72.7273 15.1083C72.7273 14.4872 72.8484 13.9286 73.0906 13.4325C73.3367 12.9364 73.6766 12.5536 74.1101 12.2841C74.5476 12.0146 75.0457 11.8798 75.6043 11.8798C76.4676 11.8798 77.1648 12.1786 77.6961 12.7763C78.2312 13.3739 78.4988 14.1689 78.4988 15.1611V15.2372C78.4988 15.8544 78.3797 16.4091 78.1414 16.9013C77.907 17.3896 77.5691 17.7704 77.1277 18.0439C76.6902 18.3173 76.1863 18.454 75.616 18.454C74.7566 18.454 74.0594 18.1552 73.5242 17.5575C72.993 16.9599 72.7273 16.1689 72.7273 15.1845V15.1083ZM73.8172 15.2372C73.8172 15.9404 73.9793 16.5048 74.3035 16.9306C74.6316 17.3564 75.0691 17.5693 75.616 17.5693C76.1668 17.5693 76.6043 17.3544 76.9285 16.9247C77.2527 16.4911 77.4148 15.8857 77.4148 15.1083C77.4148 14.413 77.2488 13.8505 76.9168 13.4208C76.5887 12.9872 76.1512 12.7704 75.6043 12.7704C75.0691 12.7704 74.6375 12.9833 74.3094 13.4091C73.9812 13.8349 73.8172 14.4443 73.8172 15.2372ZM81.1236 11.997L81.1587 12.7939C81.6431 12.1845 82.2759 11.8798 83.0572 11.8798C84.397 11.8798 85.0728 12.6357 85.0845 14.1474V18.3368H84.0005V14.1415C83.9966 13.6845 83.8912 13.3466 83.6841 13.1279C83.481 12.9091 83.1626 12.7997 82.7291 12.7997C82.3775 12.7997 82.0689 12.8935 81.8033 13.081C81.5376 13.2685 81.3306 13.5146 81.1822 13.8193V18.3368H80.0982V11.997H81.1236ZM88.137 18.3368H87.053V11.997H88.137V18.3368ZM86.9651 10.3154C86.9651 10.1396 87.0179 9.99113 87.1233 9.87004C87.2327 9.74895 87.3929 9.6884 87.6038 9.6884C87.8148 9.6884 87.9749 9.74895 88.0843 9.87004C88.1937 9.99113 88.2483 10.1396 88.2483 10.3154C88.2483 10.4911 88.1937 10.6376 88.0843 10.7548C87.9749 10.872 87.8148 10.9306 87.6038 10.9306C87.3929 10.9306 87.2327 10.872 87.1233 10.7548C87.0179 10.6376 86.9651 10.4911 86.9651 10.3154ZM95.4844 15.2372C95.4844 16.206 95.2618 16.9853 94.8165 17.5751C94.3712 18.1611 93.7735 18.454 93.0235 18.454C92.2227 18.454 91.6036 18.1708 91.1661 17.6044L91.1133 18.3368H90.1173V9.33684H91.2012V12.6943C91.6387 12.1513 92.2423 11.8798 93.0118 11.8798C93.7813 11.8798 94.3848 12.1708 94.8223 12.7529C95.2637 13.3349 95.4844 14.1318 95.4844 15.1435V15.2372ZM94.4005 15.1142C94.4005 14.3759 94.2579 13.8056 93.9727 13.4032C93.6876 13.0009 93.2774 12.7997 92.7423 12.7997C92.0274 12.7997 91.5137 13.1318 91.2012 13.7958V16.538C91.5333 17.2021 92.0508 17.5341 92.754 17.5341C93.2735 17.5341 93.6778 17.3329 93.9669 16.9306C94.2559 16.5282 94.4005 15.9228 94.4005 15.1142ZM98.2733 18.3368H97.1893V9.33684H98.2733V18.3368ZM102.884 18.454C102.025 18.454 101.326 18.1728 100.787 17.6103C100.248 17.0439 99.9781 16.288 99.9781 15.3427V15.1435C99.9781 14.5146 100.097 13.954 100.336 13.4618C100.578 12.9657 100.914 12.579 101.343 12.3017C101.777 12.0204 102.246 11.8798 102.75 11.8798C103.574 11.8798 104.214 12.1513 104.671 12.6943C105.129 13.2372 105.357 14.0146 105.357 15.0263V15.4775H101.062C101.078 16.1025 101.259 16.6083 101.607 16.995C101.959 17.3779 102.404 17.5693 102.943 17.5693C103.326 17.5693 103.65 17.4911 103.916 17.3349C104.181 17.1786 104.414 16.9716 104.613 16.7138L105.275 17.2294C104.744 18.0458 103.947 18.454 102.884 18.454ZM102.75 12.7704C102.312 12.7704 101.945 12.9306 101.648 13.2509C101.351 13.5673 101.168 14.0126 101.097 14.5868H104.273V14.5048C104.242 13.954 104.093 13.5282 103.828 13.2275C103.562 12.9228 103.203 12.7704 102.75 12.7704ZM113.765 16.6552C113.765 16.3622 113.653 16.1357 113.431 15.9755C113.212 15.8114 112.827 15.6708 112.276 15.5536C111.73 15.4364 111.294 15.2958 110.97 15.1318C110.65 14.9677 110.411 14.7724 110.255 14.5458C110.103 14.3193 110.026 14.0497 110.026 13.7372C110.026 13.2177 110.245 12.7782 110.683 12.4189C111.124 12.0595 111.687 11.8798 112.37 11.8798C113.089 11.8798 113.671 12.0654 114.116 12.4364C114.566 12.8075 114.79 13.2822 114.79 13.8603H113.7C113.7 13.5634 113.573 13.3075 113.319 13.0927C113.069 12.8779 112.753 12.7704 112.37 12.7704C111.976 12.7704 111.667 12.8564 111.444 13.0282C111.222 13.2001 111.11 13.4247 111.11 13.7021C111.11 13.9638 111.214 14.1611 111.421 14.2939C111.628 14.4267 112.001 14.5536 112.54 14.6747C113.083 14.7958 113.523 14.9404 113.859 15.1083C114.194 15.2763 114.442 15.4794 114.603 15.7177C114.767 15.9521 114.849 16.2392 114.849 16.579C114.849 17.1454 114.622 17.6005 114.169 17.9443C113.716 18.2841 113.128 18.454 112.405 18.454C111.898 18.454 111.448 18.3642 111.058 18.1845C110.667 18.0048 110.36 17.7548 110.138 17.4345C109.919 17.1103 109.81 16.7607 109.81 16.3857H110.894C110.913 16.7489 111.058 17.038 111.327 17.2529C111.601 17.4638 111.96 17.5693 112.405 17.5693C112.816 17.5693 113.144 17.4872 113.39 17.3232C113.64 17.1552 113.765 16.9325 113.765 16.6552ZM120.415 17.7099C119.993 18.206 119.374 18.454 118.557 18.454C117.882 18.454 117.366 18.2587 117.011 17.8681C116.659 17.4736 116.481 16.8915 116.477 16.122V11.997H117.561V16.0927C117.561 17.0536 117.952 17.5341 118.733 17.5341C119.561 17.5341 120.112 17.2255 120.386 16.6083V11.997H121.47V18.3368H120.438L120.415 17.7099ZM126.426 12.9697C126.262 12.9423 126.085 12.9286 125.893 12.9286C125.182 12.9286 124.7 13.2314 124.446 13.8368V18.3368H123.362V11.997H124.417L124.434 12.7294C124.79 12.163 125.294 11.8798 125.946 11.8798C126.157 11.8798 126.317 11.9072 126.426 11.9618V12.9697Z" fill="white"/>
<path d="M67.7415 26.9187C70.4649 26.9187 72.2601 29.0715 72.2601 32.3968C72.2601 35.7313 70.4754 37.8736 67.7821 37.8736C66.3899 37.9465 65.0786 37.2173 64.4059 35.9963H64.3549V41.3111H62.1524V27.031H64.2844V28.8157H64.3249C65.0275 27.6024 66.3402 26.8735 67.7415 26.9187ZM79.5517 26.9187C82.2752 26.9187 84.0703 29.0715 84.0703 32.3968C84.0703 35.7313 82.2856 37.8736 79.5923 37.8736C78.2001 37.9465 76.8888 37.2173 76.2161 35.9963H76.1652V41.3111H73.9626V27.031H76.0945V28.8157H76.1351C76.8376 27.6024 78.1504 26.8735 79.5517 26.9187ZM95.3644 22.7983C98.4743 22.7983 100.606 24.5425 100.678 27.0819H98.4546C98.3215 25.6131 97.1074 24.7265 95.3331 24.7265C93.5588 24.7265 92.3447 25.6235 92.3447 26.9291C92.3447 27.9696 93.1201 28.5819 95.0171 29.0506L96.6386 29.4487C99.6583 30.1629 100.913 31.3759 100.913 33.5286C100.913 36.2821 98.7197 38.0066 95.2312 38.0066C91.9673 38.0066 89.7636 36.3226 89.6212 33.6606L91.8759 33.6607C92.0391 35.1202 93.457 36.0784 95.3945 36.0784C97.2509 36.0784 98.5866 35.1201 98.5866 33.8041C98.5866 32.6618 97.781 31.9777 95.8736 31.509L93.9662 31.0495C91.2637 30.3967 90.009 29.1328 90.009 27.0819C90.009 24.5425 92.222 22.7983 95.3644 22.7983ZM113.978 26.8991C117.089 26.8991 119.068 29.0206 119.068 32.3968C119.068 35.7822 117.099 37.8945 113.978 37.8945C110.857 37.8945 108.889 35.7822 108.889 32.3968C108.889 29.0206 110.877 26.8991 113.978 26.8991ZM131.814 26.8991C134.782 26.8991 136.649 28.9384 136.649 32.1919V32.9465H129.071V33.0796C129 33.8785 129.276 34.6692 129.828 35.2508C130.38 35.8323 131.156 36.1485 131.957 36.119C133.026 36.2191 134.034 35.6054 134.435 34.6097L136.527 34.6097C136.23 36.5577 134.333 37.8945 131.906 37.8945C128.785 37.8945 126.847 35.803 126.847 32.4477C126.847 29.0819 128.795 26.8991 131.814 26.8991ZM105.666 24.4916V27.031H107.707V28.7752H105.666V34.6908C105.666 35.6097 106.075 36.038 106.972 36.038C107.214 36.0338 107.456 36.0167 107.697 35.987V37.7208C107.293 37.7962 106.883 37.8303 106.473 37.8227C104.301 37.8227 103.454 37.0067 103.454 34.9257V28.7752H101.893V27.031H103.453V24.4916H105.666ZM55.4706 23.0437L60.7843 37.7614H58.3676L57.0216 33.7833H51.4116L50.0644 37.7614H47.6882L53.0019 23.0437H55.4706ZM125.617 26.9187C125.871 26.9178 126.124 26.9454 126.371 27.0009V29.0611C126.051 28.9632 125.717 28.9182 125.382 28.928C124.734 28.9017 124.108 29.1598 123.666 29.6344C123.225 30.1091 123.013 30.7528 123.087 31.3967V37.7614H120.884V27.031H122.985V28.8574H123.036C123.329 27.6817 124.406 26.8725 125.617 26.9187ZM113.978 28.7139C112.193 28.7139 111.133 30.0912 111.133 32.3968C111.133 34.722 112.193 36.0785 113.978 36.0785C115.763 36.0785 116.824 34.722 116.824 32.3968C116.824 30.0808 115.763 28.7139 113.978 28.7139ZM67.1605 28.7961C65.4776 28.7961 64.3457 30.2544 64.3457 32.3968C64.3457 34.5588 65.4776 36.0067 67.1605 36.0067C68.8735 36.0067 69.9962 34.5889 69.9962 32.3968C69.9962 30.2243 68.8735 28.7961 67.1605 28.7961ZM78.9708 28.7961C77.2879 28.7961 76.1559 30.2544 76.1559 32.3968C76.1559 34.5588 77.2879 36.0067 78.9708 36.0067C80.6837 36.0067 81.8064 34.5889 81.8064 32.3968C81.8064 30.2243 80.6837 28.7961 78.9708 28.7961ZM54.2473 25.4916H54.186L51.9926 31.9477H56.4395L54.2473 25.4916ZM131.814 28.6838C131.089 28.6795 130.393 28.9647 129.88 29.4761C129.367 29.9875 129.079 30.6827 129.081 31.4072H134.446C134.486 30.6893 134.224 29.9874 133.725 29.4704C133.225 28.9534 132.532 28.6683 131.814 28.6838Z" fill="white"/>
<path fill-rule="evenodd" clip-rule="evenodd" d="M30.8229 25.2637C30.8488 23.2531 31.9029 21.3958 33.6159 20.3427C32.5303 18.7924 30.7773 17.8446 28.8856 17.7855C26.8953 17.5766 24.9659 18.9764 23.9517 18.9764C22.9179 18.9764 21.3564 17.8062 19.675 17.8408C17.4626 17.9123 15.4501 19.1396 14.3737 21.0738C12.0816 25.0424 13.7913 30.8747 15.987 34.0826C17.0855 35.6534 18.3694 37.408 20.0494 37.3458C21.6933 37.2776 22.3073 36.2975 24.2917 36.2975C26.2576 36.2975 26.8336 37.3458 28.5477 37.3062C30.3117 37.2776 31.4231 35.7284 32.4831 34.1428C33.2724 33.0235 33.8798 31.7865 34.2827 30.4776C32.1876 29.5914 30.8253 27.5385 30.8229 25.2637Z" fill="white"/>
<path fill-rule="evenodd" clip-rule="evenodd" d="M27.5876 15.6759C28.5494 14.5213 29.0233 13.0372 28.9085 11.5388C27.4391 11.6932 26.0817 12.3955 25.1069 13.5058C24.1443 14.6013 23.6567 16.0345 23.7514 17.4897C25.2405 17.505 26.6545 16.8365 27.5876 15.6759Z" fill="white"/>
</svg>
