<svg width="161" height="50" viewBox="0 0 161 50" fill="none" xmlns="http://www.w3.org/2000/svg">
<rect width="160.008" height="49.26" rx="10" fill="black"/>
<path fill-rule="evenodd" clip-rule="evenodd" d="M13.1248 9.65696C12.7799 10.022 12.5773 10.5873 12.5773 11.3209V37.5102C12.5773 38.2438 12.7799 38.8091 13.1248 39.1741L13.2125 39.2594L27.8834 24.5886V24.2425L13.2125 9.57162L13.1248 9.65696Z" fill="#00D7FE"/>
<mask id="mask0_1_363" style="mask-type:alpha" maskUnits="userSpaceOnUse" x="27" y="19" width="13" height="11">
<path d="M32.7692 29.4809L27.8805 24.5886V24.2426L32.7716 19.3515L38.676 22.7054C40.3304 23.6464 40.3304 25.1848 38.676 26.1246L32.8818 29.4169L32.7692 29.4809Z" fill="white"/>
</mask>
<g mask="url(#mask0_1_363)">
<path fill-rule="evenodd" clip-rule="evenodd" d="M32.7692 29.4809L27.8805 24.5886V24.2426L32.7716 19.3515L38.676 22.7054C40.3304 23.6464 40.3304 25.1848 38.676 26.1246L32.8818 29.4169L32.7692 29.4809Z" fill="url(#paint0_linear_1_363)"/>
</g>
<mask id="mask1_1_363" style="mask-type:alpha" maskUnits="userSpaceOnUse" x="13" y="24" width="20" height="16">
<path d="M32.8841 29.4166L27.8828 24.4153L13.1242 39.1739C13.6705 39.7511 14.5712 39.8222 15.5857 39.2462L32.8841 29.4166Z" fill="white"/>
</mask>
<g mask="url(#mask1_1_363)">
<path fill-rule="evenodd" clip-rule="evenodd" d="M32.8841 29.4166L27.8828 24.4153L13.1242 39.1739C13.6705 39.7511 14.5712 39.8222 15.5857 39.2462L32.8841 29.4166Z" fill="url(#paint1_linear_1_363)"/>
</g>
<mask id="mask2_1_363" style="mask-type:alpha" maskUnits="userSpaceOnUse" x="13" y="9" width="20" height="16">
<path d="M32.8841 19.414L15.5857 9.58444C14.5712 9.00846 13.6705 9.07957 13.1242 9.65674L27.8828 24.4153L32.8841 19.414Z" fill="white"/>
</mask>
<g mask="url(#mask2_1_363)">
<path fill-rule="evenodd" clip-rule="evenodd" d="M32.8841 19.414L15.5857 9.58444C14.5712 9.00846 13.6705 9.07957 13.1242 9.65674L27.8828 24.4153L32.8841 19.414Z" fill="url(#paint2_linear_1_363)"/>
</g>
<path fill-rule="evenodd" clip-rule="evenodd" d="M125.072 37.3957H127.284V22.5803H125.072V37.3957ZM144.991 27.917L142.456 34.3404H142.38L139.749 27.917H137.367L141.312 36.8944L139.063 41.8886H141.37L147.45 27.917H144.991ZM132.45 35.7128C131.724 35.7128 130.715 35.3514 130.715 34.4554C130.715 33.3117 131.973 32.8732 133.059 32.8732C134.032 32.8732 134.488 33.083 135.079 33.3686C134.908 34.741 133.726 35.7128 132.45 35.7128ZM132.716 27.5934C131.115 27.5934 129.457 28.2986 128.771 29.8618L130.733 30.6807C131.153 29.8618 131.934 29.5939 132.754 29.5939C133.898 29.5939 135.06 30.2801 135.079 31.5008V31.6525C134.679 31.4238 133.822 31.0813 132.773 31.0813C130.658 31.0813 128.503 32.2439 128.503 34.4163C128.503 36.399 130.238 37.6766 132.182 37.6766C133.669 37.6766 134.488 37.0094 135.004 36.2272H135.079V37.3708H137.214V31.6916C137.214 29.0606 135.251 27.5934 132.716 27.5934ZM119.049 29.7208H115.904V24.6424H119.049C120.702 24.6424 121.641 26.0113 121.641 27.181C121.641 28.3294 120.702 29.7208 119.049 29.7208ZM118.992 22.5803H113.693V37.3957H115.904V31.7829H118.992C121.443 31.7829 123.853 30.0076 123.853 27.181C123.853 24.3544 121.443 22.5803 118.992 22.5803ZM90.0973 35.7152C88.5697 35.7152 87.2909 34.4364 87.2909 32.6801C87.2909 30.9047 88.5697 29.6058 90.0973 29.6058C91.606 29.6058 92.7888 30.9047 92.7888 32.6801C92.7888 34.4364 91.606 35.7152 90.0973 35.7152ZM92.6359 28.7466H92.56C92.0635 28.1552 91.1094 27.6207 89.9065 27.6207C87.3857 27.6207 85.0759 29.8345 85.0759 32.6801C85.0759 35.5054 87.3857 37.7015 89.9065 37.7015C91.1094 37.7015 92.0635 37.167 92.56 36.5555H92.6359V37.2808C92.6359 39.2102 91.606 40.2413 89.9444 40.2413C88.5886 40.2413 87.7484 39.2671 87.4047 38.4458L85.4764 39.2481C86.0299 40.585 87.5007 42.2264 89.9444 42.2264C92.5411 42.2264 94.7371 40.6987 94.7371 36.9762V27.9253H92.6359V28.7466ZM96.2648 37.3957H98.4798V22.5791H96.2648V37.3957ZM101.744 32.5082C101.687 30.561 103.252 29.5679 104.378 29.5679C105.258 29.5679 106.002 30.0064 106.25 30.6369L101.744 32.5082ZM108.618 30.8277C108.198 29.7018 106.918 27.6207 104.302 27.6207C101.706 27.6207 99.5488 29.6627 99.5488 32.6611C99.5488 35.4865 101.687 37.7015 104.55 37.7015C106.861 37.7015 108.198 36.2888 108.751 35.4675L107.033 34.3215C106.461 35.1617 105.677 35.7152 104.55 35.7152C103.424 35.7152 102.622 35.1997 102.106 34.1887L108.846 31.4013L108.618 30.8277ZM54.9211 29.1673V31.3053H60.0374C59.8845 32.5082 59.4839 33.3864 58.8735 33.9979C58.1281 34.7422 56.9631 35.5623 54.9211 35.5623C51.771 35.5623 49.3071 33.0237 49.3071 29.8736C49.3071 26.7223 51.771 24.1838 54.9211 24.1838C56.6206 24.1838 57.8614 24.8522 58.7775 25.7114L60.2862 24.2027C59.0063 22.9808 57.308 22.0446 54.9211 22.0446C50.606 22.0446 46.9783 25.5585 46.9783 29.8736C46.9783 34.1887 50.606 37.7015 54.9211 37.7015C57.2499 37.7015 59.0063 36.9383 60.381 35.5054C61.7937 34.0927 62.2334 32.1076 62.2334 30.5029C62.2334 30.0064 62.1955 29.5489 62.1185 29.1673H54.9211ZM68.0513 35.7152C66.5236 35.7152 65.2058 34.4554 65.2058 32.6611C65.2058 30.8466 66.5236 29.6058 68.0513 29.6058C69.5777 29.6058 70.8956 30.8466 70.8956 32.6611C70.8956 34.4554 69.5777 35.7152 68.0513 35.7152ZM68.0513 27.6207C65.2626 27.6207 62.9907 29.7397 62.9907 32.6611C62.9907 35.5623 65.2626 37.7015 68.0513 37.7015C70.8387 37.7015 73.1107 35.5623 73.1107 32.6611C73.1107 29.7397 70.8387 27.6207 68.0513 27.6207ZM79.0885 35.7152C77.5609 35.7152 76.243 34.4554 76.243 32.6611C76.243 30.8466 77.5609 29.6058 79.0885 29.6058C80.6162 29.6058 81.9329 30.8466 81.9329 32.6611C81.9329 34.4554 80.6162 35.7152 79.0885 35.7152ZM79.0885 27.6207C76.3011 27.6207 74.0291 29.7397 74.0291 32.6611C74.0291 35.5623 76.3011 37.7015 79.0885 37.7015C81.876 37.7015 84.1479 35.5623 84.1479 32.6611C84.1479 29.7397 81.876 27.6207 79.0885 27.6207Z" fill="#FFFFFE"/>
<path d="M47.9677 17.6379V9.10669H50.3759C51.118 9.10669 51.7743 9.27075 52.3446 9.59888C52.9149 9.927 53.3544 10.3938 53.663 10.9993C53.9755 11.6047 54.1337 12.3 54.1376 13.0852V13.6301C54.1376 14.4348 53.9813 15.1399 53.6688 15.7454C53.3602 16.3508 52.9169 16.8157 52.3387 17.1399C51.7645 17.4641 51.0946 17.6301 50.329 17.6379H47.9677ZM49.0927 10.0325V16.718H50.2762C51.1434 16.718 51.8173 16.4485 52.2977 15.9094C52.7821 15.3704 53.0243 14.6028 53.0243 13.6067V13.1086C53.0243 12.1399 52.7958 11.3879 52.3387 10.8528C51.8856 10.3137 51.2411 10.0403 50.4052 10.0325H49.0927ZM56.4905 17.6379H55.4065V11.2981H56.4905V17.6379ZM55.3186 9.61646C55.3186 9.44067 55.3713 9.29224 55.4768 9.17114C55.5862 9.05005 55.7463 8.9895 55.9573 8.9895C56.1682 8.9895 56.3284 9.05005 56.4377 9.17114C56.5471 9.29224 56.6018 9.44067 56.6018 9.61646C56.6018 9.79224 56.5471 9.93872 56.4377 10.0559C56.3284 10.1731 56.1682 10.2317 55.9573 10.2317C55.7463 10.2317 55.5862 10.1731 55.4768 10.0559C55.3713 9.93872 55.3186 9.79224 55.3186 9.61646ZM61.5621 15.9563C61.5621 15.6633 61.4508 15.4368 61.2281 15.2766C61.0094 15.1125 60.6246 14.9719 60.0738 14.8547C59.5269 14.7375 59.0914 14.5969 58.7672 14.4329C58.4469 14.2688 58.2086 14.0735 58.0523 13.8469C57.9 13.6204 57.8238 13.3508 57.8238 13.0383C57.8238 12.5188 58.0426 12.0793 58.4801 11.72C58.9215 11.3606 59.484 11.1809 60.1676 11.1809C60.8863 11.1809 61.4684 11.3665 61.9137 11.7375C62.3629 12.1086 62.5875 12.5833 62.5875 13.1614H61.4977C61.4977 12.8645 61.3707 12.6086 61.1168 12.3938C60.8668 12.179 60.5504 12.0715 60.1676 12.0715C59.773 12.0715 59.4644 12.1575 59.2418 12.3293C59.0191 12.5012 58.9078 12.7258 58.9078 13.0032C58.9078 13.2649 59.0113 13.4622 59.2184 13.595C59.4254 13.7278 59.7984 13.8547 60.3375 13.9758C60.8805 14.0969 61.3199 14.2415 61.6559 14.4094C61.9918 14.5774 62.2398 14.7805 62.4 15.0188C62.5641 15.2532 62.6461 15.5403 62.6461 15.8801C62.6461 16.4465 62.4195 16.9016 61.9664 17.2454C61.5133 17.5852 60.9254 17.7551 60.2027 17.7551C59.6949 17.7551 59.2457 17.6653 58.8551 17.4856C58.4644 17.3059 58.1578 17.0559 57.9352 16.7356C57.7164 16.4114 57.607 16.0618 57.607 15.6868H58.691C58.7105 16.05 58.8551 16.3391 59.1246 16.554C59.398 16.7649 59.7574 16.8704 60.2027 16.8704C60.6129 16.8704 60.941 16.7883 61.1871 16.6243C61.4371 16.4563 61.5621 16.2336 61.5621 15.9563ZM69.0537 14.5383C69.0537 15.5032 68.833 16.2805 68.3916 16.8704C67.9502 17.4602 67.3525 17.7551 66.5986 17.7551C65.8291 17.7551 65.2236 17.511 64.7822 17.0227V20.0754H63.6982V11.2981H64.6884L64.7412 12.0012C65.1826 11.4543 65.7959 11.1809 66.581 11.1809C67.3427 11.1809 67.9443 11.468 68.3857 12.0422C68.831 12.6165 69.0537 13.4153 69.0537 14.4387V14.5383ZM67.9697 14.4153C67.9697 13.7004 67.8173 13.136 67.5127 12.7219C67.208 12.3079 66.79 12.1008 66.2587 12.1008C65.6025 12.1008 65.1103 12.3918 64.7822 12.9739V16.0032C65.1064 16.5813 65.6025 16.8704 66.2705 16.8704C66.79 16.8704 67.2021 16.6653 67.5068 16.2551C67.8154 15.8411 67.9697 15.2278 67.9697 14.4153ZM69.7894 14.4094C69.7894 13.7883 69.9105 13.2297 70.1527 12.7336C70.3987 12.2375 70.7386 11.8547 71.1722 11.5852C71.6097 11.3157 72.1077 11.1809 72.6663 11.1809C73.5296 11.1809 74.2269 11.4797 74.7581 12.0774C75.2933 12.675 75.5609 13.47 75.5609 14.4622V14.5383C75.5609 15.1555 75.4417 15.7102 75.2034 16.2024C74.9691 16.6907 74.6312 17.0715 74.1898 17.345C73.7523 17.6184 73.2484 17.7551 72.678 17.7551C71.8187 17.7551 71.1214 17.4563 70.5862 16.8586C70.055 16.261 69.7894 15.47 69.7894 14.4856V14.4094ZM70.8792 14.5383C70.8792 15.2415 71.0413 15.8059 71.3655 16.2317C71.6937 16.6575 72.1312 16.8704 72.678 16.8704C73.2288 16.8704 73.6663 16.6555 73.9905 16.2258C74.3148 15.7922 74.4769 15.1868 74.4769 14.4094C74.4769 13.7141 74.3109 13.1516 73.9788 12.7219C73.6507 12.2883 73.2132 12.0715 72.6663 12.0715C72.1312 12.0715 71.6995 12.2844 71.3714 12.7102C71.0433 13.136 70.8792 13.7454 70.8792 14.5383ZM77.5856 11.2981L77.6208 12.095C78.1052 11.4856 78.738 11.1809 79.5192 11.1809C80.8591 11.1809 81.5348 11.9368 81.5466 13.4485V17.6379H80.4626V13.4426C80.4587 12.9856 80.3532 12.6477 80.1462 12.429C79.943 12.2102 79.6247 12.1008 79.1911 12.1008C78.8395 12.1008 78.5309 12.1946 78.2653 12.3821C77.9997 12.5696 77.7927 12.8157 77.6442 13.1204V17.6379H76.5602V11.2981H77.5856ZM83.9991 17.6379H82.9151V11.2981H83.9991V17.6379ZM82.8272 9.61646C82.8272 9.44067 82.8799 9.29224 82.9854 9.17114C83.0948 9.05005 83.2549 8.9895 83.4659 8.9895C83.6768 8.9895 83.8369 9.05005 83.9463 9.17114C84.0557 9.29224 84.1104 9.44067 84.1104 9.61646C84.1104 9.79224 84.0557 9.93872 83.9463 10.0559C83.8369 10.1731 83.6768 10.2317 83.4659 10.2317C83.2549 10.2317 83.0948 10.1731 82.9854 10.0559C82.8799 9.93872 82.8272 9.79224 82.8272 9.61646ZM90.7465 14.5383C90.7465 15.5071 90.5238 16.2864 90.0785 16.8762C89.6332 17.4622 89.0355 17.7551 88.2855 17.7551C87.4848 17.7551 86.8656 17.4719 86.4281 16.9055L86.3754 17.6379H85.3793V8.63794H86.4633V11.9954C86.9008 11.4524 87.5043 11.1809 88.2738 11.1809C89.0434 11.1809 89.6469 11.4719 90.0844 12.054C90.5258 12.636 90.7465 13.4329 90.7465 14.4446V14.5383ZM89.6625 14.4153C89.6625 13.677 89.5199 13.1067 89.2348 12.7043C88.9496 12.302 88.5394 12.1008 88.0043 12.1008C87.2894 12.1008 86.7758 12.4329 86.4633 13.0969V15.8391C86.7953 16.5032 87.3129 16.8352 88.016 16.8352C88.5355 16.8352 88.9398 16.634 89.2289 16.2317C89.518 15.8293 89.6625 15.2239 89.6625 14.4153ZM92.9353 17.6379H91.8513V8.63794H92.9353V17.6379ZM96.9464 17.7551C96.087 17.7551 95.3878 17.4739 94.8487 16.9114C94.3097 16.345 94.0401 15.5891 94.0401 14.6438V14.4446C94.0401 13.8157 94.1593 13.2551 94.3976 12.7629C94.6398 12.2668 94.9757 11.8801 95.4054 11.6028C95.839 11.3215 96.3077 11.1809 96.8116 11.1809C97.6359 11.1809 98.2765 11.4524 98.7335 11.9954C99.1905 12.5383 99.4191 13.3157 99.4191 14.3274V14.7786H95.1241C95.1398 15.4036 95.3214 15.9094 95.6691 16.2961C96.0206 16.679 96.4659 16.8704 97.005 16.8704C97.3878 16.8704 97.712 16.7922 97.9776 16.636C98.2433 16.4797 98.4757 16.2727 98.6749 16.0149L99.337 16.5305C98.8058 17.3469 98.0089 17.7551 96.9464 17.7551ZM96.8116 12.0715C96.3741 12.0715 96.0069 12.2317 95.7101 12.552C95.4132 12.8684 95.2296 13.3137 95.1593 13.8879H98.3351V13.8059C98.3038 13.2551 98.1554 12.8293 97.8898 12.5286C97.6241 12.2239 97.2648 12.0715 96.8116 12.0715ZM106.627 15.9563C106.627 15.6633 106.515 15.4368 106.293 15.2766C106.074 15.1125 105.689 14.9719 105.139 14.8547C104.592 14.7375 104.156 14.5969 103.832 14.4329C103.512 14.2688 103.273 14.0735 103.117 13.8469C102.965 13.6204 102.889 13.3508 102.889 13.0383C102.889 12.5188 103.107 12.0793 103.545 11.72C103.986 11.3606 104.549 11.1809 105.232 11.1809C105.951 11.1809 106.533 11.3665 106.978 11.7375C107.428 12.1086 107.652 12.5833 107.652 13.1614H106.562C106.562 12.8645 106.435 12.6086 106.181 12.3938C105.931 12.179 105.615 12.0715 105.232 12.0715C104.838 12.0715 104.529 12.1575 104.306 12.3293C104.084 12.5012 103.972 12.7258 103.972 13.0032C103.972 13.2649 104.076 13.4622 104.283 13.595C104.49 13.7278 104.863 13.8547 105.402 13.9758C105.945 14.0969 106.385 14.2415 106.721 14.4094C107.056 14.5774 107.305 14.7805 107.465 15.0188C107.629 15.2532 107.711 15.5403 107.711 15.8801C107.711 16.4465 107.484 16.9016 107.031 17.2454C106.578 17.5852 105.99 17.7551 105.267 17.7551C104.76 17.7551 104.31 17.6653 103.92 17.4856C103.529 17.3059 103.222 17.0559 103 16.7356C102.781 16.4114 102.672 16.0618 102.672 15.6868H103.756C103.775 16.05 103.92 16.3391 104.189 16.554C104.463 16.7649 104.822 16.8704 105.267 16.8704C105.678 16.8704 106.006 16.7883 106.252 16.6243C106.502 16.4563 106.627 16.2336 106.627 15.9563ZM112.677 17.011C112.255 17.5071 111.636 17.7551 110.82 17.7551C110.144 17.7551 109.628 17.5598 109.273 17.1692C108.921 16.7747 108.743 16.1926 108.739 15.4231V11.2981H109.823V15.3938C109.823 16.3547 110.214 16.8352 110.995 16.8352C111.823 16.8352 112.374 16.5266 112.648 15.9094V11.2981H113.732V17.6379H112.7L112.677 17.011ZM118.088 12.2708C117.924 12.2434 117.747 12.2297 117.555 12.2297C116.844 12.2297 116.362 12.5325 116.108 13.1379V17.6379H115.024V11.2981H116.079L116.096 12.0305C116.452 11.4641 116.956 11.1809 117.608 11.1809C117.819 11.1809 117.979 11.2083 118.088 11.2629V12.2708Z" fill="white"/>
<defs>
<linearGradient id="paint0_linear_1_363" x1="37.5996" y1="24.416" x2="27.8805" y2="24.416" gradientUnits="userSpaceOnUse">
<stop stop-color="#FFBC00"/>
<stop offset="1" stop-color="#FFDA03"/>
</linearGradient>
<linearGradient id="paint1_linear_1_363" x1="30.1661" y1="29.1213" x2="17.4809" y2="39.5773" gradientUnits="userSpaceOnUse">
<stop stop-color="#E22652"/>
<stop offset="1" stop-color="#FF3A44"/>
</linearGradient>
<linearGradient id="paint2_linear_1_363" x1="15.359" y1="11.4335" x2="23.8164" y2="18.8701" gradientUnits="userSpaceOnUse">
<stop stop-color="#0ED574"/>
<stop offset="1" stop-color="#07F076"/>
</linearGradient>
</defs>
</svg>
